/* XPM */

static char * surf_16_xpm[] = {
"16 16 3 1",
" 	c None",
".	c #FFFFFF",
"+	c #0A0A0A",
"                ",
"                ",
"                ",
"            ....",
"            .+++",
"            .+++",
".............++.",
".+++++.+++++++++",
".+++++.+++++++++",
".++.++.++.++.++.",
"+++.+++++.++.++.",
"+++.+++++.++.++.",
"................",
"                ",
"                ",
"                "};

static char * surf_32_xpm[] = {
"32 32 3 1",
" 	c None",
".	c #FFFFFF",
"+	c #000000",
"                                ",
"                                ",
"                                ",
"                                ",
"                                ",
"                                ",
"                       .........",
"                       .........",
"                       ..+++++++",
"                       ..+++++++",
"                       ..+++++++",
"                       ..+++....",
" ........................+++....",
" ........................+++....",
" ..++++++++...++++++++++++++++..",
" ..++++++++...++++++++++++++++..",
" ..++++++++...++++++++++++++++..",
" ..+++..+++...+++..+++...+++....",
"...+++..+++...+++..+++...+++....",
"...+++..+++...+++..+++...+++..  ",
"++++++..+++++++++..+++...+++..  ",
"++++++..+++++++++..+++...+++..  ",
"++++++..+++++++++..+++...+++..  ",
"..............................  ",
"..............................  ",
"                                ",
"                                ",
"                                ",
"                                ",
"                                ",
"                                ",
"                                "};

static char * surf_48_xpm[] = {
"48 48 3 1",
" 	c None",
".	c #FFFFFF",
"+	c #000000",
"                                                ",
"                                                ",
"                                                ",
"                                                ",
"                                                ",
"                                                ",
"                                                ",
"                                                ",
"                                                ",
"                                                ",
"                                  ..............",
"                                  ..............",
"                                  ..............",
"                                  ..............",
"                                  ....++++++++..",
"                                  ....++++++++..",
"                                  ....++++++++..",
"                                  ....++++++++..",
"  ....................................++++......",
"  ....................................++++......",
"  ....................................++++......",
"  ....................................++++......",
"  ....++++++++++++....+++++++++++++++++++++++...",
"  ....++++++++++++....+++++++++++++++++++++++...",
"  ....++++++++++++....+++++++++++++++++++++++...",
"  ....++++++++++++....+++++++++++++++++++++++...",
"......++++....++++....++++....++++....++++......",
"......++++....++++....++++....++++....++++......",
"......++++....++++....++++....++++....++++......",
"......++++....++++....++++....++++....++++......",
"..++++++++....++++++++++++....++++....++++....  ",
"..++++++++....++++++++++++....++++....++++....  ",
"..++++++++....++++++++++++....++++....++++....  ",
"..++++++++....++++++++++++....++++....++++....  ",
"..............................................  ",
"..............................................  ",
"..............................................  ",
"..............................................  ",
"                                                ",
"                                                ",
"                                                ",
"                                                ",
"                                                ",
"                                                ",
"                                                ",
"                                                ",
"                                                ",
"                                                "};

static char **surf_xpm[IconLast] = {
	[Icon16x16] = surf_16_xpm,
	[Icon32x32] = surf_32_xpm,
	[Icon48x48] = surf_48_xpm,
};
